<?xml version="1.0" standalone="no"?>
<!DOCTYPE svg PUBLIC "-//W3C//DTD SVG 20010904//EN"
 "http://www.w3.org/TR/2001/REC-SVG-20010904/DTD/svg10.dtd">
<svg version="1.0" xmlns="http://www.w3.org/2000/svg"
 width="360.000000pt" height="360.000000pt" viewBox="0 0 360.000000 360.000000"
 preserveAspectRatio="xMidYMid meet">

<g transform="translate(0.000000,360.000000) scale(0.100000,-0.100000)"
fill="#000000" stroke="none">
<path d="M1776 3038 c-26 -41 -56 -128 -56 -164 0 -20 7 -51 16 -70 15 -32 15
-35 -5 -60 -20 -26 -21 -36 -21 -384 0 -317 -2 -359 -16 -364 -20 -8 -348 -8
-368 0 -14 5 -16 40 -16 284 0 153 -4 290 -9 303 -5 13 -17 32 -26 41 -16 16
-16 18 1 38 30 32 24 110 -13 191 -18 37 -38 67 -45 67 -8 0 -28 -29 -46 -65
-36 -74 -43 -149 -16 -190 14 -22 14 -26 -8 -55 -23 -31 -23 -36 -26 -326 l-3
-294 -172 0 c-183 0 -199 -4 -237 -54 -37 -50 -38 -70 -39 -648 l-1 -568 -86
0 c-81 0 -87 -1 -115 -29 -21 -22 -29 -39 -29 -66 0 -27 8 -44 29 -66 l29 -29
1297 0 c1206 0 1299 1 1326 17 34 21 54 70 40 104 -19 50 -47 64 -139 69 l-87
5 -5 580 c-6 645 -3 620 -73 664 -31 19 -49 21 -205 21 l-171 0 -3 299 c-3
298 -3 300 -26 324 -23 24 -23 26 -6 52 27 41 21 108 -17 187 -18 37 -39 68
-46 68 -8 0 -28 -30 -46 -67 -37 -81 -43 -159 -14 -191 17 -19 17 -21 -8 -57
l-25 -38 0 -282 c0 -249 -2 -284 -16 -289 -20 -8 -348 -8 -368 0 -14 5 -16 47
-16 363 0 335 -1 358 -20 388 -18 30 -18 34 -3 63 21 44 13 111 -23 185 -33
67 -46 76 -68 43z m47 -74 c10 -20 20 -55 23 -78 5 -35 2 -47 -17 -70 -62 -72
-102 44 -52 150 9 19 20 34 23 34 3 0 14 -16 23 -36z m-583 -134 c34 -67 23
-170 -19 -170 -35 0 -54 35 -48 87 4 45 31 123 42 123 2 0 14 -18 25 -40z
m1173 -18 c31 -79 14 -152 -34 -152 -48 0 -57 94 -17 174 22 43 28 40 51 -22z
m-568 -92 c13 -24 15 -84 15 -375 l0 -345 -60 0 -60 0 0 353 c0 390 1 397 60
397 23 0 33 -7 45 -30z m-610 -106 c40 -16 45 -51 45 -337 l0 -275 -42 -3
c-24 -2 -53 -3 -65 -1 l-23 3 0 275 c0 223 3 280 15 304 19 36 39 46 70 34z
m1193 -22 c9 -12 12 -89 12 -304 l0 -288 -60 0 -61 0 3 291 3 291 24 19 c26
21 58 18 79 -9z m417 -654 c48 -38 55 -70 55 -268 0 -99 -3 -180 -7 -180 -4 0
-30 24 -58 54 -77 84 -113 82 -135 -7 -18 -70 -28 -86 -64 -104 -45 -21 -96
-7 -146 40 -47 45 -72 57 -115 57 -67 0 -126 -48 -182 -148 -77 -138 -167
-118 -250 55 -43 88 -72 117 -118 117 -39 0 -90 -42 -127 -104 -67 -112 -109
-105 -182 28 -45 82 -72 100 -116 77 -16 -9 -47 -41 -68 -73 -50 -76 -70 -79
-118 -12 -20 28 -44 55 -54 60 -44 24 -95 2 -130 -55 -23 -38 -69 -60 -104
-51 -26 6 -40 37 -50 116 -4 25 -17 59 -30 75 -20 25 -31 30 -68 29 -23 0 -50
-2 -58 -5 -12 -3 -15 12 -18 89 -3 110 10 165 48 204 l28 28 1020 0 1019 0 28
-22z m-2027 -348 c12 -13 22 -43 26 -81 7 -69 28 -112 64 -129 21 -9 33 -7 76
14 30 15 59 38 69 55 40 68 92 65 137 -8 57 -91 99 -87 168 17 57 87 91 84
139 -15 31 -62 83 -113 116 -113 32 0 62 24 98 78 54 79 79 102 115 102 37 0
56 -21 96 -111 32 -70 93 -134 138 -143 57 -11 118 27 158 99 80 144 160 172
252 89 22 -20 60 -42 84 -49 84 -25 145 11 171 101 8 29 20 56 26 59 14 9 58
-21 70 -48 6 -12 26 -33 45 -46 l34 -24 -2 -351 -3 -351 -53 -7 c-30 -5 -523
-7 -1095 -6 l-1042 3 -3 433 -2 433 22 9 c39 15 76 11 96 -10z m2269 -911 c49
-18 58 -64 21 -99 -22 -20 -27 -20 -1310 -20 -1275 0 -1288 0 -1308 20 -26 26
-25 64 2 90 22 20 27 20 1294 20 874 0 1281 -3 1301 -11z"/>
</g>
</svg>
